# Generated low-poly visual mesh
o shelf_low_poly_frame
v -0.413 0 -0.243
v -0.377 0 -0.243
v -0.377 1.9 -0.243
v -0.413 1.9 -0.243
v -0.413 0 -0.207
v -0.377 0 -0.207
v -0.377 1.9 -0.207
v -0.413 1.9 -0.207
v -0.413 0 0.207
v -0.377 0 0.207
v -0.377 1.9 0.207
v -0.413 1.9 0.207
v -0.413 0 0.243
v -0.377 0 0.243
v -0.377 1.9 0.243
v -0.413 1.9 0.243
v 0.347 0 -0.243
v 0.383 0 -0.243
v 0.383 1.9 -0.243
v 0.347 1.9 -0.243
v 0.347 0 -0.207
v 0.383 0 -0.207
v 0.383 1.9 -0.207
v 0.347 1.9 -0.207
v 0.347 0 0.207
v 0.383 0 0.207
v 0.383 1.9 0.207
v 0.347 1.9 0.207
v 0.347 0 0.243
v 0.383 0 0.243
v 0.383 1.9 0.243
v 0.347 1.9 0.243
v -0.4 1.862 -0.243
v 0.34 1.862 -0.243
v 0.34 1.898 -0.243
v -0.4 1.898 -0.243
v -0.4 1.862 -0.207
v 0.34 1.862 -0.207
v 0.34 1.898 -0.207
v -0.4 1.898 -0.207
v -0.4 1.862 0.207
v 0.34 1.862 0.207
v 0.34 1.898 0.207
v -0.4 1.898 0.207
v -0.4 1.862 0.243
v 0.34 1.862 0.243
v 0.34 1.898 0.243
v -0.4 1.898 0.243
v -0.418 1.862 -0.225
v -0.382 1.862 -0.225
v -0.382 1.898 -0.225
v -0.418 1.898 -0.225
v -0.418 1.862 0.225
v -0.382 1.862 0.225
v -0.382 1.898 0.225
v -0.418 1.898 0.225
v 0.322 1.862 -0.225
v 0.358 1.862 -0.225
v 0.358 1.898 -0.225
v 0.322 1.898 -0.225
v 0.322 1.862 0.225
v 0.358 1.862 0.225
v 0.358 1.898 0.225
v 0.322 1.898 0.225
f 1 3 2
f 1 4 3
f 5 6 7
f 5 7 8
f 1 2 6
f 1 6 5
f 2 3 7
f 2 7 6
f 3 4 8
f 3 8 7
f 4 1 5
f 4 5 8
f 9 11 10
f 9 12 11
f 13 14 15
f 13 15 16
f 9 10 14
f 9 14 13
f 10 11 15
f 10 15 14
f 11 12 16
f 11 16 15
f 12 9 13
f 12 13 16
f 17 19 18
f 17 20 19
f 21 22 23
f 21 23 24
f 17 18 22
f 17 22 21
f 18 19 23
f 18 23 22
f 19 20 24
f 19 24 23
f 20 17 21
f 20 21 24
f 25 27 26
f 25 28 27
f 29 30 31
f 29 31 32
f 25 26 30
f 25 30 29
f 26 27 31
f 26 31 30
f 27 28 32
f 27 32 31
f 28 25 29
f 28 29 32
f 33 35 34
f 33 36 35
f 37 38 39
f 37 39 40
f 33 34 38
f 33 38 37
f 34 35 39
f 34 39 38
f 35 36 40
f 35 40 39
f 36 33 37
f 36 37 40
f 41 43 42
f 41 44 43
f 45 46 47
f 45 47 48
f 41 42 46
f 41 46 45
f 42 43 47
f 42 47 46
f 43 44 48
f 43 48 47
f 44 41 45
f 44 45 48
f 49 51 50
f 49 52 51
f 53 54 55
f 53 55 56
f 49 50 54
f 49 54 53
f 50 51 55
f 50 55 54
f 51 52 56
f 51 56 55
f 52 49 53
f 52 53 56
f 57 59 58
f 57 60 59
f 61 62 63
f 61 63 64
f 57 58 62
f 57 62 61
f 58 59 63
f 58 63 62
f 59 60 64
f 59 64 63
f 60 57 61
f 60 61 64
