# Generated low-poly visual mesh
o shelf_low_poly_rims
v -0.359 0.14 -0.205
v 0.371 0.14 -0.205
v 0.371 0.18 -0.205
v -0.359 0.18 -0.205
v -0.359 0.14 -0.181
v 0.371 0.14 -0.181
v 0.371 0.18 -0.181
v -0.359 0.18 -0.181
v -0.359 0.14 0.181
v 0.371 0.14 0.181
v 0.371 0.18 0.181
v -0.359 0.18 0.181
v -0.359 0.14 0.205
v 0.371 0.14 0.205
v 0.371 0.18 0.205
v -0.359 0.18 0.205
v -0.359 0.14 -0.181
v -0.335 0.14 -0.181
v -0.335 0.18 -0.181
v -0.359 0.18 -0.181
v -0.359 0.14 0.181
v -0.335 0.14 0.181
v -0.335 0.18 0.181
v -0.359 0.18 0.181
v 0.347 0.14 -0.181
v 0.371 0.14 -0.181
v 0.371 0.18 -0.181
v 0.347 0.18 -0.181
v 0.347 0.14 0.181
v 0.371 0.14 0.181
v 0.371 0.18 0.181
v 0.347 0.18 0.181
v -0.37 0.548 -0.205
v 0.35 0.548 -0.205
v 0.35 0.592 -0.205
v -0.37 0.592 -0.205
v -0.37 0.548 -0.181
v 0.35 0.548 -0.181
v 0.35 0.592 -0.181
v -0.37 0.592 -0.181
v -0.37 0.548 0.181
v 0.35 0.548 0.181
v 0.35 0.592 0.181
v -0.37 0.592 0.181
v -0.37 0.548 0.205
v 0.35 0.548 0.205
v 0.35 0.592 0.205
v -0.37 0.592 0.205
v -0.37 0.548 -0.181
v -0.346 0.548 -0.181
v -0.346 0.592 -0.181
v -0.37 0.592 -0.181
v -0.37 0.548 0.181
v -0.346 0.548 0.181
v -0.346 0.592 0.181
v -0.37 0.592 0.181
v 0.326 0.548 -0.181
v 0.35 0.548 -0.181
v 0.35 0.592 -0.181
v 0.326 0.592 -0.181
v 0.326 0.548 0.181
v 0.35 0.548 0.181
v 0.35 0.592 0.181
v 0.326 0.592 0.181
v -0.375 0.96 -0.205
v 0.335 0.96 -0.205
v 0.335 1 -0.205
v -0.375 1 -0.205
v -0.375 0.96 -0.181
v 0.335 0.96 -0.181
v 0.335 1 -0.181
v -0.375 1 -0.181
v -0.375 0.96 0.181
v 0.335 0.96 0.181
v 0.335 1 0.181
v -0.375 1 0.181
v -0.375 0.96 0.205
v 0.335 0.96 0.205
v 0.335 1 0.205
v -0.375 1 0.205
v -0.375 0.96 -0.181
v -0.351 0.96 -0.181
v -0.351 1 -0.181
v -0.375 1 -0.181
v -0.375 0.96 0.181
v -0.351 0.96 0.181
v -0.351 1 0.181
v -0.375 1 0.181
v 0.311 0.96 -0.181
v 0.335 0.96 -0.181
v 0.335 1 -0.181
v 0.311 1 -0.181
v 0.311 0.96 0.181
v 0.335 0.96 0.181
v 0.335 1 0.181
v 0.311 1 0.181
v -0.378 1.36 -0.205
v 0.322 1.36 -0.205
v 0.322 1.4 -0.205
v -0.378 1.4 -0.205
v -0.378 1.36 -0.181
v 0.322 1.36 -0.181
v 0.322 1.4 -0.181
v -0.378 1.4 -0.181
v -0.378 1.36 0.181
v 0.322 1.36 0.181
v 0.322 1.4 0.181
v -0.378 1.4 0.181
v -0.378 1.36 0.205
v 0.322 1.36 0.205
v 0.322 1.4 0.205
v -0.378 1.4 0.205
v -0.378 1.36 -0.181
v -0.354 1.36 -0.181
v -0.354 1.4 -0.181
v -0.378 1.4 -0.181
v -0.378 1.36 0.181
v -0.354 1.36 0.181
v -0.354 1.4 0.181
v -0.378 1.4 0.181
v 0.298 1.36 -0.181
v 0.322 1.36 -0.181
v 0.322 1.4 -0.181
v 0.298 1.4 -0.181
v 0.298 1.36 0.181
v 0.322 1.36 0.181
v 0.322 1.4 0.181
v 0.298 1.4 0.181
v -0.383 1.76 -0.205
v 0.317 1.76 -0.205
v 0.317 1.8 -0.205
v -0.383 1.8 -0.205
v -0.383 1.76 -0.181
v 0.317 1.76 -0.181
v 0.317 1.8 -0.181
v -0.383 1.8 -0.181
v -0.383 1.76 0.181
v 0.317 1.76 0.181
v 0.317 1.8 0.181
v -0.383 1.8 0.181
v -0.383 1.76 0.205
v 0.317 1.76 0.205
v 0.317 1.8 0.205
v -0.383 1.8 0.205
v -0.383 1.76 -0.181
v -0.359 1.76 -0.181
v -0.359 1.8 -0.181
v -0.383 1.8 -0.181
v -0.383 1.76 0.181
v -0.359 1.76 0.181
v -0.359 1.8 0.181
v -0.383 1.8 0.181
v 0.293 1.76 -0.181
v 0.317 1.76 -0.181
v 0.317 1.8 -0.181
v 0.293 1.8 -0.181
v 0.293 1.76 0.181
v 0.317 1.76 0.181
v 0.317 1.8 0.181
v 0.293 1.8 0.181
f 1 3 2
f 1 4 3
f 5 6 7
f 5 7 8
f 1 2 6
f 1 6 5
f 2 3 7
f 2 7 6
f 3 4 8
f 3 8 7
f 4 1 5
f 4 5 8
f 9 11 10
f 9 12 11
f 13 14 15
f 13 15 16
f 9 10 14
f 9 14 13
f 10 11 15
f 10 15 14
f 11 12 16
f 11 16 15
f 12 9 13
f 12 13 16
f 17 19 18
f 17 20 19
f 21 22 23
f 21 23 24
f 17 18 22
f 17 22 21
f 18 19 23
f 18 23 22
f 19 20 24
f 19 24 23
f 20 17 21
f 20 21 24
f 25 27 26
f 25 28 27
f 29 30 31
f 29 31 32
f 25 26 30
f 25 30 29
f 26 27 31
f 26 31 30
f 27 28 32
f 27 32 31
f 28 25 29
f 28 29 32
f 33 35 34
f 33 36 35
f 37 38 39
f 37 39 40
f 33 34 38
f 33 38 37
f 34 35 39
f 34 39 38
f 35 36 40
f 35 40 39
f 36 33 37
f 36 37 40
f 41 43 42
f 41 44 43
f 45 46 47
f 45 47 48
f 41 42 46
f 41 46 45
f 42 43 47
f 42 47 46
f 43 44 48
f 43 48 47
f 44 41 45
f 44 45 48
f 49 51 50
f 49 52 51
f 53 54 55
f 53 55 56
f 49 50 54
f 49 54 53
f 50 51 55
f 50 55 54
f 51 52 56
f 51 56 55
f 52 49 53
f 52 53 56
f 57 59 58
f 57 60 59
f 61 62 63
f 61 63 64
f 57 58 62
f 57 62 61
f 58 59 63
f 58 63 62
f 59 60 64
f 59 64 63
f 60 57 61
f 60 61 64
f 65 67 66
f 65 68 67
f 69 70 71
f 69 71 72
f 65 66 70
f 65 70 69
f 66 67 71
f 66 71 70
f 67 68 72
f 67 72 71
f 68 65 69
f 68 69 72
f 73 75 74
f 73 76 75
f 77 78 79
f 77 79 80
f 73 74 78
f 73 78 77
f 74 75 79
f 74 79 78
f 75 76 80
f 75 80 79
f 76 73 77
f 76 77 80
f 81 83 82
f 81 84 83
f 85 86 87
f 85 87 88
f 81 82 86
f 81 86 85
f 82 83 87
f 82 87 86
f 83 84 88
f 83 88 87
f 84 81 85
f 84 85 88
f 89 91 90
f 89 92 91
f 93 94 95
f 93 95 96
f 89 90 94
f 89 94 93
f 90 91 95
f 90 95 94
f 91 92 96
f 91 96 95
f 92 89 93
f 92 93 96
f 97 99 98
f 97 100 99
f 101 102 103
f 101 103 104
f 97 98 102
f 97 102 101
f 98 99 103
f 98 103 102
f 99 100 104
f 99 104 103
f 100 97 101
f 100 101 104
f 105 107 106
f 105 108 107
f 109 110 111
f 109 111 112
f 105 106 110
f 105 110 109
f 106 107 111
f 106 111 110
f 107 108 112
f 107 112 111
f 108 105 109
f 108 109 112
f 113 115 114
f 113 116 115
f 117 118 119
f 117 119 120
f 113 114 118
f 113 118 117
f 114 115 119
f 114 119 118
f 115 116 120
f 115 120 119
f 116 113 117
f 116 117 120
f 121 123 122
f 121 124 123
f 125 126 127
f 125 127 128
f 121 122 126
f 121 126 125
f 122 123 127
f 122 127 126
f 123 124 128
f 123 128 127
f 124 121 125
f 124 125 128
f 129 131 130
f 129 132 131
f 133 134 135
f 133 135 136
f 129 130 134
f 129 134 133
f 130 131 135
f 130 135 134
f 131 132 136
f 131 136 135
f 132 129 133
f 132 133 136
f 137 139 138
f 137 140 139
f 141 142 143
f 141 143 144
f 137 138 142
f 137 142 141
f 138 139 143
f 138 143 142
f 139 140 144
f 139 144 143
f 140 137 141
f 140 141 144
f 145 147 146
f 145 148 147
f 149 150 151
f 149 151 152
f 145 146 150
f 145 150 149
f 146 147 151
f 146 151 150
f 147 148 152
f 147 152 151
f 148 145 149
f 148 149 152
f 153 155 154
f 153 156 155
f 157 158 159
f 157 159 160
f 153 154 158
f 153 158 157
f 154 155 159
f 154 159 158
f 155 156 160
f 155 160 159
f 156 153 157
f 156 157 160
