# Shallow double-sided beveled underside for the primitive round table.
v 0.350000 0.000000 0.746000
v 0.349578 0.017174 0.746000
v 0.348315 0.034306 0.746000
v 0.346212 0.051356 0.746000
v 0.343275 0.068282 0.746000
v 0.339511 0.085043 0.746000
v 0.334929 0.101600 0.746000
v 0.329540 0.117911 0.746000
v 0.323358 0.133939 0.746000
v 0.316396 0.149644 0.746000
v 0.308672 0.164989 0.746000
v 0.300205 0.179936 0.746000
v 0.291014 0.194450 0.746000
v 0.281123 0.208495 0.746000
v 0.270554 0.222038 0.746000
v 0.259333 0.235046 0.746000
v 0.247487 0.247487 0.746000
v 0.235046 0.259333 0.746000
v 0.222038 0.270554 0.746000
v 0.208495 0.281123 0.746000
v 0.194450 0.291014 0.746000
v 0.179936 0.300205 0.746000
v 0.164989 0.308672 0.746000
v 0.149644 0.316396 0.746000
v 0.133939 0.323358 0.746000
v 0.117911 0.329540 0.746000
v 0.101600 0.334929 0.746000
v 0.085043 0.339511 0.746000
v 0.068282 0.343275 0.746000
v 0.051356 0.346212 0.746000
v 0.034306 0.348315 0.746000
v 0.017174 0.349578 0.746000
v 0.000000 0.350000 0.746000
v -0.017174 0.349578 0.746000
v -0.034306 0.348315 0.746000
v -0.051356 0.346212 0.746000
v -0.068282 0.343275 0.746000
v -0.085043 0.339511 0.746000
v -0.101600 0.334929 0.746000
v -0.117911 0.329540 0.746000
v -0.133939 0.323358 0.746000
v -0.149644 0.316396 0.746000
v -0.164989 0.308672 0.746000
v -0.179936 0.300205 0.746000
v -0.194450 0.291014 0.746000
v -0.208495 0.281123 0.746000
v -0.222038 0.270554 0.746000
v -0.235046 0.259333 0.746000
v -0.247487 0.247487 0.746000
v -0.259333 0.235046 0.746000
v -0.270554 0.222038 0.746000
v -0.281123 0.208495 0.746000
v -0.291014 0.194450 0.746000
v -0.300205 0.179936 0.746000
v -0.308672 0.164989 0.746000
v -0.316396 0.149644 0.746000
v -0.323358 0.133939 0.746000
v -0.329540 0.117911 0.746000
v -0.334929 0.101600 0.746000
v -0.339511 0.085043 0.746000
v -0.343275 0.068282 0.746000
v -0.346212 0.051356 0.746000
v -0.348315 0.034306 0.746000
v -0.349578 0.017174 0.746000
v -0.350000 0.000000 0.746000
v -0.349578 -0.017174 0.746000
v -0.348315 -0.034306 0.746000
v -0.346212 -0.051356 0.746000
v -0.343275 -0.068282 0.746000
v -0.339511 -0.085043 0.746000
v -0.334929 -0.101600 0.746000
v -0.329540 -0.117911 0.746000
v -0.323358 -0.133939 0.746000
v -0.316396 -0.149644 0.746000
v -0.308672 -0.164989 0.746000
v -0.300205 -0.179936 0.746000
v -0.291014 -0.194450 0.746000
v -0.281123 -0.208495 0.746000
v -0.270554 -0.222038 0.746000
v -0.259333 -0.235046 0.746000
v -0.247487 -0.247487 0.746000
v -0.235046 -0.259333 0.746000
v -0.222038 -0.270554 0.746000
v -0.208495 -0.281123 0.746000
v -0.194450 -0.291014 0.746000
v -0.179936 -0.300205 0.746000
v -0.164989 -0.308672 0.746000
v -0.149644 -0.316396 0.746000
v -0.133939 -0.323358 0.746000
v -0.117911 -0.329540 0.746000
v -0.101600 -0.334929 0.746000
v -0.085043 -0.339511 0.746000
v -0.068282 -0.343275 0.746000
v -0.051356 -0.346212 0.746000
v -0.034306 -0.348315 0.746000
v -0.017174 -0.349578 0.746000
v -0.000000 -0.350000 0.746000
v 0.017174 -0.349578 0.746000
v 0.034306 -0.348315 0.746000
v 0.051356 -0.346212 0.746000
v 0.068282 -0.343275 0.746000
v 0.085043 -0.339511 0.746000
v 0.101600 -0.334929 0.746000
v 0.117911 -0.329540 0.746000
v 0.133939 -0.323358 0.746000
v 0.149644 -0.316396 0.746000
v 0.164989 -0.308672 0.746000
v 0.179936 -0.300205 0.746000
v 0.194450 -0.291014 0.746000
v 0.208495 -0.281123 0.746000
v 0.222038 -0.270554 0.746000
v 0.235046 -0.259333 0.746000
v 0.247487 -0.247487 0.746000
v 0.259333 -0.235046 0.746000
v 0.270554 -0.222038 0.746000
v 0.281123 -0.208495 0.746000
v 0.291014 -0.194450 0.746000
v 0.300205 -0.179936 0.746000
v 0.308672 -0.164989 0.746000
v 0.316396 -0.149644 0.746000
v 0.323358 -0.133939 0.746000
v 0.329540 -0.117911 0.746000
v 0.334929 -0.101600 0.746000
v 0.339511 -0.085043 0.746000
v 0.343275 -0.068282 0.746000
v 0.346212 -0.051356 0.746000
v 0.348315 -0.034306 0.746000
v 0.349578 -0.017174 0.746000
v 0.310000 0.000000 0.720000
v 0.309627 0.015211 0.720000
v 0.308507 0.030385 0.720000
v 0.306645 0.045486 0.720000
v 0.304043 0.060478 0.720000
v 0.300710 0.075324 0.720000
v 0.296652 0.089988 0.720000
v 0.291879 0.104436 0.720000
v 0.286403 0.118632 0.720000
v 0.280237 0.132542 0.720000
v 0.273396 0.146133 0.720000
v 0.265896 0.159372 0.720000
v 0.257756 0.172227 0.720000
v 0.248994 0.184667 0.720000
v 0.239633 0.196662 0.720000
v 0.229695 0.208183 0.720000
v 0.219203 0.219203 0.720000
v 0.208183 0.229695 0.720000
v 0.196662 0.239633 0.720000
v 0.184667 0.248994 0.720000
v 0.172227 0.257756 0.720000
v 0.159372 0.265896 0.720000
v 0.146133 0.273396 0.720000
v 0.132542 0.280237 0.720000
v 0.118632 0.286403 0.720000
v 0.104436 0.291879 0.720000
v 0.089988 0.296652 0.720000
v 0.075324 0.300710 0.720000
v 0.060478 0.304043 0.720000
v 0.045486 0.306645 0.720000
v 0.030385 0.308507 0.720000
v 0.015211 0.309627 0.720000
v 0.000000 0.310000 0.720000
v -0.015211 0.309627 0.720000
v -0.030385 0.308507 0.720000
v -0.045486 0.306645 0.720000
v -0.060478 0.304043 0.720000
v -0.075324 0.300710 0.720000
v -0.089988 0.296652 0.720000
v -0.104436 0.291879 0.720000
v -0.118632 0.286403 0.720000
v -0.132542 0.280237 0.720000
v -0.146133 0.273396 0.720000
v -0.159372 0.265896 0.720000
v -0.172227 0.257756 0.720000
v -0.184667 0.248994 0.720000
v -0.196662 0.239633 0.720000
v -0.208183 0.229695 0.720000
v -0.219203 0.219203 0.720000
v -0.229695 0.208183 0.720000
v -0.239633 0.196662 0.720000
v -0.248994 0.184667 0.720000
v -0.257756 0.172227 0.720000
v -0.265896 0.159372 0.720000
v -0.273396 0.146133 0.720000
v -0.280237 0.132542 0.720000
v -0.286403 0.118632 0.720000
v -0.291879 0.104436 0.720000
v -0.296652 0.089988 0.720000
v -0.300710 0.075324 0.720000
v -0.304043 0.060478 0.720000
v -0.306645 0.045486 0.720000
v -0.308507 0.030385 0.720000
v -0.309627 0.015211 0.720000
v -0.310000 0.000000 0.720000
v -0.309627 -0.015211 0.720000
v -0.308507 -0.030385 0.720000
v -0.306645 -0.045486 0.720000
v -0.304043 -0.060478 0.720000
v -0.300710 -0.075324 0.720000
v -0.296652 -0.089988 0.720000
v -0.291879 -0.104436 0.720000
v -0.286403 -0.118632 0.720000
v -0.280237 -0.132542 0.720000
v -0.273396 -0.146133 0.720000
v -0.265896 -0.159372 0.720000
v -0.257756 -0.172227 0.720000
v -0.248994 -0.184667 0.720000
v -0.239633 -0.196662 0.720000
v -0.229695 -0.208183 0.720000
v -0.219203 -0.219203 0.720000
v -0.208183 -0.229695 0.720000
v -0.196662 -0.239633 0.720000
v -0.184667 -0.248994 0.720000
v -0.172227 -0.257756 0.720000
v -0.159372 -0.265896 0.720000
v -0.146133 -0.273396 0.720000
v -0.132542 -0.280237 0.720000
v -0.118632 -0.286403 0.720000
v -0.104436 -0.291879 0.720000
v -0.089988 -0.296652 0.720000
v -0.075324 -0.300710 0.720000
v -0.060478 -0.304043 0.720000
v -0.045486 -0.306645 0.720000
v -0.030385 -0.308507 0.720000
v -0.015211 -0.309627 0.720000
v -0.000000 -0.310000 0.720000
v 0.015211 -0.309627 0.720000
v 0.030385 -0.308507 0.720000
v 0.045486 -0.306645 0.720000
v 0.060478 -0.304043 0.720000
v 0.075324 -0.300710 0.720000
v 0.089988 -0.296652 0.720000
v 0.104436 -0.291879 0.720000
v 0.118632 -0.286403 0.720000
v 0.132542 -0.280237 0.720000
v 0.146133 -0.273396 0.720000
v 0.159372 -0.265896 0.720000
v 0.172227 -0.257756 0.720000
v 0.184667 -0.248994 0.720000
v 0.196662 -0.239633 0.720000
v 0.208183 -0.229695 0.720000
v 0.219203 -0.219203 0.720000
v 0.229695 -0.208183 0.720000
v 0.239633 -0.196662 0.720000
v 0.248994 -0.184667 0.720000
v 0.257756 -0.172227 0.720000
v 0.265896 -0.159372 0.720000
v 0.273396 -0.146133 0.720000
v 0.280237 -0.132542 0.720000
v 0.286403 -0.118632 0.720000
v 0.291879 -0.104436 0.720000
v 0.296652 -0.089988 0.720000
v 0.300710 -0.075324 0.720000
v 0.304043 -0.060478 0.720000
v 0.306645 -0.045486 0.720000
v 0.308507 -0.030385 0.720000
v 0.309627 -0.015211 0.720000
v 0.000000 0.000000 0.720000
f 1 2 130
f 1 130 2
f 1 130 129
f 1 129 130
f 129 130 257
f 129 257 130
f 2 3 131
f 2 131 3
f 2 131 130
f 2 130 131
f 130 131 257
f 130 257 131
f 3 4 132
f 3 132 4
f 3 132 131
f 3 131 132
f 131 132 257
f 131 257 132
f 4 5 133
f 4 133 5
f 4 133 132
f 4 132 133
f 132 133 257
f 132 257 133
f 5 6 134
f 5 134 6
f 5 134 133
f 5 133 134
f 133 134 257
f 133 257 134
f 6 7 135
f 6 135 7
f 6 135 134
f 6 134 135
f 134 135 257
f 134 257 135
f 7 8 136
f 7 136 8
f 7 136 135
f 7 135 136
f 135 136 257
f 135 257 136
f 8 9 137
f 8 137 9
f 8 137 136
f 8 136 137
f 136 137 257
f 136 257 137
f 9 10 138
f 9 138 10
f 9 138 137
f 9 137 138
f 137 138 257
f 137 257 138
f 10 11 139
f 10 139 11
f 10 139 138
f 10 138 139
f 138 139 257
f 138 257 139
f 11 12 140
f 11 140 12
f 11 140 139
f 11 139 140
f 139 140 257
f 139 257 140
f 12 13 141
f 12 141 13
f 12 141 140
f 12 140 141
f 140 141 257
f 140 257 141
f 13 14 142
f 13 142 14
f 13 142 141
f 13 141 142
f 141 142 257
f 141 257 142
f 14 15 143
f 14 143 15
f 14 143 142
f 14 142 143
f 142 143 257
f 142 257 143
f 15 16 144
f 15 144 16
f 15 144 143
f 15 143 144
f 143 144 257
f 143 257 144
f 16 17 145
f 16 145 17
f 16 145 144
f 16 144 145
f 144 145 257
f 144 257 145
f 17 18 146
f 17 146 18
f 17 146 145
f 17 145 146
f 145 146 257
f 145 257 146
f 18 19 147
f 18 147 19
f 18 147 146
f 18 146 147
f 146 147 257
f 146 257 147
f 19 20 148
f 19 148 20
f 19 148 147
f 19 147 148
f 147 148 257
f 147 257 148
f 20 21 149
f 20 149 21
f 20 149 148
f 20 148 149
f 148 149 257
f 148 257 149
f 21 22 150
f 21 150 22
f 21 150 149
f 21 149 150
f 149 150 257
f 149 257 150
f 22 23 151
f 22 151 23
f 22 151 150
f 22 150 151
f 150 151 257
f 150 257 151
f 23 24 152
f 23 152 24
f 23 152 151
f 23 151 152
f 151 152 257
f 151 257 152
f 24 25 153
f 24 153 25
f 24 153 152
f 24 152 153
f 152 153 257
f 152 257 153
f 25 26 154
f 25 154 26
f 25 154 153
f 25 153 154
f 153 154 257
f 153 257 154
f 26 27 155
f 26 155 27
f 26 155 154
f 26 154 155
f 154 155 257
f 154 257 155
f 27 28 156
f 27 156 28
f 27 156 155
f 27 155 156
f 155 156 257
f 155 257 156
f 28 29 157
f 28 157 29
f 28 157 156
f 28 156 157
f 156 157 257
f 156 257 157
f 29 30 158
f 29 158 30
f 29 158 157
f 29 157 158
f 157 158 257
f 157 257 158
f 30 31 159
f 30 159 31
f 30 159 158
f 30 158 159
f 158 159 257
f 158 257 159
f 31 32 160
f 31 160 32
f 31 160 159
f 31 159 160
f 159 160 257
f 159 257 160
f 32 33 161
f 32 161 33
f 32 161 160
f 32 160 161
f 160 161 257
f 160 257 161
f 33 34 162
f 33 162 34
f 33 162 161
f 33 161 162
f 161 162 257
f 161 257 162
f 34 35 163
f 34 163 35
f 34 163 162
f 34 162 163
f 162 163 257
f 162 257 163
f 35 36 164
f 35 164 36
f 35 164 163
f 35 163 164
f 163 164 257
f 163 257 164
f 36 37 165
f 36 165 37
f 36 165 164
f 36 164 165
f 164 165 257
f 164 257 165
f 37 38 166
f 37 166 38
f 37 166 165
f 37 165 166
f 165 166 257
f 165 257 166
f 38 39 167
f 38 167 39
f 38 167 166
f 38 166 167
f 166 167 257
f 166 257 167
f 39 40 168
f 39 168 40
f 39 168 167
f 39 167 168
f 167 168 257
f 167 257 168
f 40 41 169
f 40 169 41
f 40 169 168
f 40 168 169
f 168 169 257
f 168 257 169
f 41 42 170
f 41 170 42
f 41 170 169
f 41 169 170
f 169 170 257
f 169 257 170
f 42 43 171
f 42 171 43
f 42 171 170
f 42 170 171
f 170 171 257
f 170 257 171
f 43 44 172
f 43 172 44
f 43 172 171
f 43 171 172
f 171 172 257
f 171 257 172
f 44 45 173
f 44 173 45
f 44 173 172
f 44 172 173
f 172 173 257
f 172 257 173
f 45 46 174
f 45 174 46
f 45 174 173
f 45 173 174
f 173 174 257
f 173 257 174
f 46 47 175
f 46 175 47
f 46 175 174
f 46 174 175
f 174 175 257
f 174 257 175
f 47 48 176
f 47 176 48
f 47 176 175
f 47 175 176
f 175 176 257
f 175 257 176
f 48 49 177
f 48 177 49
f 48 177 176
f 48 176 177
f 176 177 257
f 176 257 177
f 49 50 178
f 49 178 50
f 49 178 177
f 49 177 178
f 177 178 257
f 177 257 178
f 50 51 179
f 50 179 51
f 50 179 178
f 50 178 179
f 178 179 257
f 178 257 179
f 51 52 180
f 51 180 52
f 51 180 179
f 51 179 180
f 179 180 257
f 179 257 180
f 52 53 181
f 52 181 53
f 52 181 180
f 52 180 181
f 180 181 257
f 180 257 181
f 53 54 182
f 53 182 54
f 53 182 181
f 53 181 182
f 181 182 257
f 181 257 182
f 54 55 183
f 54 183 55
f 54 183 182
f 54 182 183
f 182 183 257
f 182 257 183
f 55 56 184
f 55 184 56
f 55 184 183
f 55 183 184
f 183 184 257
f 183 257 184
f 56 57 185
f 56 185 57
f 56 185 184
f 56 184 185
f 184 185 257
f 184 257 185
f 57 58 186
f 57 186 58
f 57 186 185
f 57 185 186
f 185 186 257
f 185 257 186
f 58 59 187
f 58 187 59
f 58 187 186
f 58 186 187
f 186 187 257
f 186 257 187
f 59 60 188
f 59 188 60
f 59 188 187
f 59 187 188
f 187 188 257
f 187 257 188
f 60 61 189
f 60 189 61
f 60 189 188
f 60 188 189
f 188 189 257
f 188 257 189
f 61 62 190
f 61 190 62
f 61 190 189
f 61 189 190
f 189 190 257
f 189 257 190
f 62 63 191
f 62 191 63
f 62 191 190
f 62 190 191
f 190 191 257
f 190 257 191
f 63 64 192
f 63 192 64
f 63 192 191
f 63 191 192
f 191 192 257
f 191 257 192
f 64 65 193
f 64 193 65
f 64 193 192
f 64 192 193
f 192 193 257
f 192 257 193
f 65 66 194
f 65 194 66
f 65 194 193
f 65 193 194
f 193 194 257
f 193 257 194
f 66 67 195
f 66 195 67
f 66 195 194
f 66 194 195
f 194 195 257
f 194 257 195
f 67 68 196
f 67 196 68
f 67 196 195
f 67 195 196
f 195 196 257
f 195 257 196
f 68 69 197
f 68 197 69
f 68 197 196
f 68 196 197
f 196 197 257
f 196 257 197
f 69 70 198
f 69 198 70
f 69 198 197
f 69 197 198
f 197 198 257
f 197 257 198
f 70 71 199
f 70 199 71
f 70 199 198
f 70 198 199
f 198 199 257
f 198 257 199
f 71 72 200
f 71 200 72
f 71 200 199
f 71 199 200
f 199 200 257
f 199 257 200
f 72 73 201
f 72 201 73
f 72 201 200
f 72 200 201
f 200 201 257
f 200 257 201
f 73 74 202
f 73 202 74
f 73 202 201
f 73 201 202
f 201 202 257
f 201 257 202
f 74 75 203
f 74 203 75
f 74 203 202
f 74 202 203
f 202 203 257
f 202 257 203
f 75 76 204
f 75 204 76
f 75 204 203
f 75 203 204
f 203 204 257
f 203 257 204
f 76 77 205
f 76 205 77
f 76 205 204
f 76 204 205
f 204 205 257
f 204 257 205
f 77 78 206
f 77 206 78
f 77 206 205
f 77 205 206
f 205 206 257
f 205 257 206
f 78 79 207
f 78 207 79
f 78 207 206
f 78 206 207
f 206 207 257
f 206 257 207
f 79 80 208
f 79 208 80
f 79 208 207
f 79 207 208
f 207 208 257
f 207 257 208
f 80 81 209
f 80 209 81
f 80 209 208
f 80 208 209
f 208 209 257
f 208 257 209
f 81 82 210
f 81 210 82
f 81 210 209
f 81 209 210
f 209 210 257
f 209 257 210
f 82 83 211
f 82 211 83
f 82 211 210
f 82 210 211
f 210 211 257
f 210 257 211
f 83 84 212
f 83 212 84
f 83 212 211
f 83 211 212
f 211 212 257
f 211 257 212
f 84 85 213
f 84 213 85
f 84 213 212
f 84 212 213
f 212 213 257
f 212 257 213
f 85 86 214
f 85 214 86
f 85 214 213
f 85 213 214
f 213 214 257
f 213 257 214
f 86 87 215
f 86 215 87
f 86 215 214
f 86 214 215
f 214 215 257
f 214 257 215
f 87 88 216
f 87 216 88
f 87 216 215
f 87 215 216
f 215 216 257
f 215 257 216
f 88 89 217
f 88 217 89
f 88 217 216
f 88 216 217
f 216 217 257
f 216 257 217
f 89 90 218
f 89 218 90
f 89 218 217
f 89 217 218
f 217 218 257
f 217 257 218
f 90 91 219
f 90 219 91
f 90 219 218
f 90 218 219
f 218 219 257
f 218 257 219
f 91 92 220
f 91 220 92
f 91 220 219
f 91 219 220
f 219 220 257
f 219 257 220
f 92 93 221
f 92 221 93
f 92 221 220
f 92 220 221
f 220 221 257
f 220 257 221
f 93 94 222
f 93 222 94
f 93 222 221
f 93 221 222
f 221 222 257
f 221 257 222
f 94 95 223
f 94 223 95
f 94 223 222
f 94 222 223
f 222 223 257
f 222 257 223
f 95 96 224
f 95 224 96
f 95 224 223
f 95 223 224
f 223 224 257
f 223 257 224
f 96 97 225
f 96 225 97
f 96 225 224
f 96 224 225
f 224 225 257
f 224 257 225
f 97 98 226
f 97 226 98
f 97 226 225
f 97 225 226
f 225 226 257
f 225 257 226
f 98 99 227
f 98 227 99
f 98 227 226
f 98 226 227
f 226 227 257
f 226 257 227
f 99 100 228
f 99 228 100
f 99 228 227
f 99 227 228
f 227 228 257
f 227 257 228
f 100 101 229
f 100 229 101
f 100 229 228
f 100 228 229
f 228 229 257
f 228 257 229
f 101 102 230
f 101 230 102
f 101 230 229
f 101 229 230
f 229 230 257
f 229 257 230
f 102 103 231
f 102 231 103
f 102 231 230
f 102 230 231
f 230 231 257
f 230 257 231
f 103 104 232
f 103 232 104
f 103 232 231
f 103 231 232
f 231 232 257
f 231 257 232
f 104 105 233
f 104 233 105
f 104 233 232
f 104 232 233
f 232 233 257
f 232 257 233
f 105 106 234
f 105 234 106
f 105 234 233
f 105 233 234
f 233 234 257
f 233 257 234
f 106 107 235
f 106 235 107
f 106 235 234
f 106 234 235
f 234 235 257
f 234 257 235
f 107 108 236
f 107 236 108
f 107 236 235
f 107 235 236
f 235 236 257
f 235 257 236
f 108 109 237
f 108 237 109
f 108 237 236
f 108 236 237
f 236 237 257
f 236 257 237
f 109 110 238
f 109 238 110
f 109 238 237
f 109 237 238
f 237 238 257
f 237 257 238
f 110 111 239
f 110 239 111
f 110 239 238
f 110 238 239
f 238 239 257
f 238 257 239
f 111 112 240
f 111 240 112
f 111 240 239
f 111 239 240
f 239 240 257
f 239 257 240
f 112 113 241
f 112 241 113
f 112 241 240
f 112 240 241
f 240 241 257
f 240 257 241
f 113 114 242
f 113 242 114
f 113 242 241
f 113 241 242
f 241 242 257
f 241 257 242
f 114 115 243
f 114 243 115
f 114 243 242
f 114 242 243
f 242 243 257
f 242 257 243
f 115 116 244
f 115 244 116
f 115 244 243
f 115 243 244
f 243 244 257
f 243 257 244
f 116 117 245
f 116 245 117
f 116 245 244
f 116 244 245
f 244 245 257
f 244 257 245
f 117 118 246
f 117 246 118
f 117 246 245
f 117 245 246
f 245 246 257
f 245 257 246
f 118 119 247
f 118 247 119
f 118 247 246
f 118 246 247
f 246 247 257
f 246 257 247
f 119 120 248
f 119 248 120
f 119 248 247
f 119 247 248
f 247 248 257
f 247 257 248
f 120 121 249
f 120 249 121
f 120 249 248
f 120 248 249
f 248 249 257
f 248 257 249
f 121 122 250
f 121 250 122
f 121 250 249
f 121 249 250
f 249 250 257
f 249 257 250
f 122 123 251
f 122 251 123
f 122 251 250
f 122 250 251
f 250 251 257
f 250 257 251
f 123 124 252
f 123 252 124
f 123 252 251
f 123 251 252
f 251 252 257
f 251 257 252
f 124 125 253
f 124 253 125
f 124 253 252
f 124 252 253
f 252 253 257
f 252 257 253
f 125 126 254
f 125 254 126
f 125 254 253
f 125 253 254
f 253 254 257
f 253 257 254
f 126 127 255
f 126 255 127
f 126 255 254
f 126 254 255
f 254 255 257
f 254 257 255
f 127 128 256
f 127 256 128
f 127 256 255
f 127 255 256
f 255 256 257
f 255 257 256
f 128 1 129
f 128 129 1
f 128 129 256
f 128 256 129
f 256 129 257
f 256 257 129
